<?xml version="1.0" encoding="utf-8"?>
<!-- Generator: Adobe Illustrator 17.0.0, SVG Export Plug-In . SVG Version: 6.00 Build 0)  -->
<!DOCTYPE svg PUBLIC "-//W3C//DTD SVG 1.1//EN" "http://www.w3.org/Graphics/SVG/1.1/DTD/svg11.dtd">
<svg version="1.1" id="Layer_1" xmlns="http://www.w3.org/2000/svg" xmlns:xlink="http://www.w3.org/1999/xlink" x="0px" y="0px"
	 width="419.015px" height="84.994px" viewBox="0 0 419.015 84.994" enable-background="new 0 0 419.015 84.994"
	 xml:space="preserve">
<g>
	<g>
		<g>
			<path d="M212.771,71.516c-3.054,0-4.841-0.611-5.365-1.833c-0.873-1.743,1.395-4.361,6.804-7.85
				c0.263-0.263,0.566-0.217,0.916,0.131c0.174,0.35,0.087,0.653-0.261,0.916c-1.659,1.045-2.925,1.963-3.794,2.747
				c-0.873,0.784-1.505,1.418-1.897,1.897c-0.394,0.481-0.589,0.85-0.589,1.113c0,0.261,0,0.437,0,0.524
				c0.174,0.35,0.674,0.634,1.505,0.85c0.827,0.218,2.201,0.284,4.121,0.195c3.487-0.261,7.589-1.001,12.301-2.224
				c3.051-0.784,5.974-1.679,8.765-2.682s5.189-2.071,7.197-3.207c2.268-1.219,4.013-2.44,5.234-3.663
				c1.221-1.221,1.745-2.355,1.571-3.402c-0.087-0.697-0.589-1.505-1.505-2.421c-0.916-0.916-2.77-1.832-5.56-2.747
				c-2.793-0.916-6.719-1.81-11.777-2.683c-5.06-0.87-11.733-1.613-20.019-2.224c-4.536-0.348-8.288-0.937-11.254-1.766
				c-2.966-0.829-5.344-1.787-7.131-2.879c-1.789-1.09-3.097-2.268-3.926-3.533c-0.829-1.264-1.331-2.463-1.505-3.599
				c-0.437-2.179-0.087-4.469,1.047-6.868c1.134-2.399,2.726-4.712,4.776-6.936c2.05-2.224,4.471-4.318,7.262-6.281
				c2.792-1.963,5.713-3.642,8.767-5.037c4.884-2.179,9.465-3.926,13.74-5.235c4.272-1.308,8.197-2.179,11.775-2.616
				c6.716-0.697,11.033,0.392,12.954,3.271c0.435,0.612,0.697,1.439,0.784,2.486s-0.261,2.399-1.045,4.057
				c-1.223,2.705-3.622,5.583-7.197,8.636c-0.35,0.35-0.655,0.35-0.916,0c-0.263-0.263-0.22-0.568,0.13-0.918
				c3.315-2.964,5.582-5.711,6.804-8.242c1.047-2.268,1.132-4.057,0.263-5.365c-0.699-1.132-2.075-1.94-4.123-2.421
				c-2.05-0.479-4.559-0.545-7.523-0.197c-7.154,0.786-15.529,3.36-25.123,7.72c-3.054,1.397-5.91,3.033-8.57,4.907
				c-2.662,1.876-4.996,3.904-7.001,6.084c-4.362,4.712-6.194,8.943-5.495,12.693c0.524,3.054,2.703,5.475,6.542,7.262
				c3.837,1.789,9.202,2.944,16.095,3.468c6.804,0.437,12.778,1.045,17.925,1.832c5.147,0.784,9.378,1.658,12.693,2.616
				c6.02,1.833,9.159,4.144,9.42,6.936c0.263,2.618-2.224,5.365-7.457,8.244c-2.181,1.134-4.668,2.224-7.459,3.271
				c-2.792,1.047-5.713,1.963-8.765,2.747c-2.355,0.612-4.602,1.091-6.739,1.439c-2.139,0.35-4.08,0.57-5.823,0.655
				c-0.263,0.087-0.547,0.131-0.85,0.131C213.185,71.516,212.945,71.516,212.771,71.516z"/>
		</g>
		<path d="M270.604,53.721c0.174,0.176,0.217,0.35,0.131,0.524c-0.089,0.176-0.218,0.305-0.392,0.392
			c0,0.087-0.284,0.371-0.852,0.85c-0.568,0.481-1.329,0.981-2.289,1.505c-0.261,0.176-0.634,0.392-1.111,0.655
			c-0.481,0.261-0.981,0.479-1.505,0.653c-0.524,0.176-1.028,0.263-1.505,0.263c-0.481,0-0.896-0.174-1.244-0.524
			c-0.611-0.348-0.981-0.916-1.111-1.702c-0.131-0.784-0.153-1.613-0.066-2.486c0.087-0.87,0.241-1.785,0.458-2.747
			c0.217-0.958,0.458-1.832,0.719-2.616c0.174-0.263,0.282-0.524,0.328-0.786c0.043-0.261,0.108-0.477,0.195-0.653
			c0-0.437,0.263-0.568,0.786-0.394c0.435,0,0.566,0.263,0.392,0.786l-0.392,1.439c-0.176,0.611-0.394,1.352-0.655,2.224
			c-0.261,0.873-0.458,1.702-0.589,2.486c-0.13,0.784-0.153,1.505-0.066,2.158c0.087,0.655,0.348,1.07,0.786,1.244
			c0.174,0.087,0.392,0.131,0.653,0.131c0.263,0,0.655-0.108,1.178-0.328c0.524-0.217,1.198-0.566,2.029-1.047
			c0.827-0.477,1.897-1.198,3.205-2.158C270.036,53.416,270.343,53.458,270.604,53.721z"/>
		<path d="M291.931,63.404c0.611,1.569,0.894,3.184,0.852,4.84c-0.046,1.659-0.328,3.317-0.852,4.973
			c-0.524,1.658-1.287,3.205-2.289,4.644c-1.004,1.439-2.073,2.726-3.205,3.86c-2.181,2.179-4.233,3.273-6.149,3.273
			c-0.699,0-1.223-0.131-1.571-0.394c-0.699-0.35-1.354-1.091-1.963-2.224c-0.612-1.134-0.786-3.095-0.524-5.889
			c0.174-1.482,0.524-2.944,1.047-4.384c0.524-1.439,1.393-3.029,2.616-4.776c0.174-0.346,0.479-0.392,0.916-0.13
			c0.348,0.176,0.394,0.479,0.131,0.916c-1.134,1.658-1.942,3.12-2.421,4.384c-0.481,1.265-0.807,2.639-0.981,4.121
			c-0.437,3.837,0.131,6.105,1.702,6.804c0.697,0.348,1.613,0.305,2.747-0.131c1.132-0.437,2.311-1.265,3.533-2.486
			c1.132-1.045,2.135-2.245,3.008-3.597c0.871-1.352,1.571-2.792,2.094-4.318c0.524-1.526,0.806-3.053,0.85-4.581
			c0.043-1.524-0.241-2.987-0.85-4.384c-0.96-2.266-2.596-3.706-4.907-4.318c-2.312-0.609-4.644-1.045-7-1.308
			c-1.485-0.174-2.793-0.369-3.926-0.589c-1.134-0.217-2.052-0.632-2.747-1.242v-0.131c-1.397-0.958-2.094-2.311-2.094-4.055
			c-0.174-1.918,0.479-3.533,1.963-4.841c1.571-1.571,3.794-2.486,6.673-2.749h0.655c1.569,0,2.898,0.438,3.99,1.31
			c1.09,0.873,1.721,2.05,1.897,3.532c0.263,1.485-0.261,3.01-1.569,4.581c-1.136,1.134-2.793,2.05-4.973,2.747
			c0.085,0,0.174,0.044,0.263,0.131c1.219,0.176,2.485,0.35,3.794,0.524c1.308,0.176,2.55,0.481,3.729,0.916
			c1.177,0.437,2.266,1.047,3.271,1.832C290.644,61.047,291.408,62.094,291.931,63.404z M271.257,52.15
			c0,0.96,0.348,1.876,1.047,2.747c0.697,0.873,1.745,1.31,3.141,1.31c0.261,0,0.5-0.021,0.719-0.066
			c0.217-0.044,0.458-0.066,0.721-0.066c2.616-0.697,4.492-1.656,5.626-2.879c1.047-1.047,1.482-2.226,1.308-3.533
			c-0.176-1.047-0.676-1.917-1.505-2.616c-0.829-0.697-1.855-1.047-3.074-1.047h-0.524c-2.705,0.261-4.646,1.026-5.823,2.289
			C271.715,49.556,271.17,50.842,271.257,52.15z"/>
		<path d="M293.63,56.992h-0.13c-1.136,0-1.963-0.609-2.486-1.832c-0.35-1.221-0.392-2.486-0.131-3.794
			c0-0.437-0.066-0.96-0.197-1.571c-0.13-0.609,0.197-0.829,0.981-0.655c0.437,0,0.611,0.307,0.524,0.916
			c0.174,0.35,0.174,0.655,0,0.916c0,0.612-0.021,1.201-0.066,1.768c-0.044,0.568,0.021,1.111,0.197,1.635
			c0.435,0.873,1.001,1.31,1.7,1.31c0.786,0.087,1.787-0.263,3.01-1.047c1.221-0.786,2.442-1.656,3.665-2.618
			c1.045-0.784,2.027-1.459,2.943-2.029c0.918-0.566,1.721-0.85,2.421-0.85c0.437-0.085,0.74,0.11,0.918,0.589
			c0.172,0.481,0.346,1.068,0.522,1.766c0.174,0.699,0.414,1.439,0.721,2.226c0.305,0.784,0.806,1.223,1.505,1.308
			c0.958,0.087,3.139-0.916,6.542-3.01c0.437-0.261,0.74-0.261,0.916,0c0.174,0.263,0,0.568-0.524,0.916
			c-2.007,1.31-3.578,2.226-4.71,2.749c-1.134,0.524-2.05,0.742-2.747,0.653c-0.962-0.174-1.636-0.674-2.029-1.505
			c-0.392-0.827-0.676-1.721-0.85-2.682c-0.176-0.348-0.307-0.721-0.392-1.113c-0.089-0.392-0.22-0.589-0.392-0.589
			c-0.438,0-1.047,0.263-1.833,0.786c-0.784,0.524-1.615,1.091-2.485,1.7c-1.223,0.962-2.509,1.878-3.86,2.749
			C296.006,56.555,294.764,56.992,293.63,56.992z"/>
		<path d="M326.996,57.253c-0.263,0-0.568-0.085-0.916-0.261c-0.962-0.437-1.571-1.832-1.832-4.187
			c-1.31,2.007-3.36,3.008-6.151,3.008c-0.784,0-1.331-0.13-1.635-0.392c-0.307-0.261-0.547-0.477-0.721-0.655
			c-0.524-0.87-0.348-1.961,0.524-3.271c0.609-0.958,1.59-1.832,2.944-2.616c1.352-0.786,3.029-1.09,5.038-0.916
			c0.435,0.176,0.653,0.437,0.653,0.784c-0.176,0.438-0.437,0.611-0.784,0.524c-1.746-0.174-3.186,0.066-4.318,0.719
			c-1.136,0.655-1.963,1.375-2.486,2.16c-0.611,0.873-0.742,1.526-0.392,1.963c0.085,0.261,0.477,0.392,1.177,0.392
			c2.005,0,3.445-0.524,4.318-1.571c0.871-1.047,1.439-2.005,1.702-2.879c0.174-0.348,0.435-0.524,0.784-0.524
			c0.437,0,0.655,0.22,0.655,0.655c0,0.35,0,0.808,0,1.374c0,0.568,0.043,1.157,0.131,1.766c0.085,0.612,0.195,1.159,0.327,1.636
			c0.131,0.481,0.327,0.765,0.589,0.85c0.697,0.35,1.94,0.154,3.729-0.587c1.787-0.74,3.816-2.071,6.084-3.991
			c0.263-0.263,0.566-0.263,0.916,0c0.263,0.35,0.263,0.653,0,0.916c-2.616,2.27-4.755,3.686-6.41,4.252
			C329.262,56.971,327.955,57.253,326.996,57.253z"/>
		<path d="M361.307,38.47l-15.275,0.319v1.309l15.275-0.32c0.435,0,0.653-0.217,0.653-0.655
			C362.134,38.689,361.915,38.47,361.307,38.47z"/>
		<path d="M355.127,49.009c-0.437-0.261-0.742-0.216-0.916,0.131c-0.784,0.786-1.876,1.746-3.271,2.879
			c-1.397,1.136-2.859,2.226-4.384,3.271c-1.528,1.047-2.989,1.878-4.384,2.486c-1.397,0.612-2.444,0.786-3.14,0.524
			c-0.962-0.348-1.397-1.745-1.31-4.187c0.087-2.442,0.305-5.276,0.655-8.505c0.085-0.871,0.174-1.745,0.261-2.618
			c0.087-0.871,0.218-1.787,0.394-2.747l11.232-0.235v-1.309l-11.232,0.235c0.085-0.958,0.151-1.874,0.195-2.747
			c0.043-0.871,0.066-1.787,0.066-2.747c0-0.437-0.176-0.655-0.524-0.655c-0.524,0-0.784,0.218-0.784,0.655
			c0,0.96-0.023,1.876-0.066,2.747c-0.044,0.873-0.11,1.789-0.197,2.747l-11.122,0.263c-0.435,0-0.653,0.218-0.653,0.655
			s0.176,0.653,0.523,0.653l11.252-0.261c-0.176,0.96-0.305,1.876-0.392,2.747c-0.087,0.873-0.176,1.746-0.261,2.618
			c-0.438,3.75-0.655,6.868-0.655,9.355s0.697,4.036,2.094,4.644c0.085,0.089,0.392,0.131,0.916,0.131
			c0.698,0,1.525-0.131,2.486-0.392c0.958-0.261,2.071-0.74,3.336-1.439c1.264-0.697,2.703-1.7,4.318-3.01
			c1.613-1.308,3.422-2.964,5.429-4.971C355.259,49.664,355.301,49.359,355.127,49.009z"/>
		<g>
			<path d="M356.851,58.71c-0.707,0.089-1.078,0.027-1.51-0.375c-1.086-1.01-1.37-1.208-1.387-2.905s0.219-4.16,0.434-6.03
				c0.035-0.304,0.435-0.544,0.747-0.529c0.312,0.015,0.515,0.417,0.499,0.651c-0.117,1.698-0.436,4.219-0.439,5.659
				s0.067,1.121,0.783,1.982c0.303,0.365,0.423,0.336,1.006,0.24c1.508-0.249,2.759-0.783,4.158-1.777
				c1.4-0.993,3.072-2.393,4.448-3.566c0.535-0.456,1.115-0.896,1.658-1.321s1.023-0.791,1.614-1.169
				c0.231-0.148,0.423-0.394,0.765-0.438c0.342-0.044,0.584-0.142,0.906,0.235c0.322,0.377,0.643,0.637,0.438,1.323
				c-0.205,0.686-0.45,1.628-0.72,2.411c-0.135,0.392-0.374,1.008-0.559,1.418c-0.184,0.41-0.293,0.974-0.331,1.367
				c-0.038,0.393-0.022,0.859,0.028,1.123c0.05,0.264,0.061,0.403,0.338,0.411c0.277,0.008,0.399-0.032,0.903-0.085
				c2.242-0.239,4.684-1.664,5.122-1.914c1.714-0.978,3.871-2.78,4.8-3.761c0.93-0.981,0.87-0.956,1.392-1.551
				c0.522-0.595,0.793-1.002,1.155-1.433c0.362-0.431,0.43-0.605,0.704-0.948c0.273-0.343,0.651-0.374,0.918-0.028
				s0.295,0.393-0.032,0.848c-0.855,1.19-1.247,1.622-2.356,3.097c-1.11,1.475-5.922,5.733-10.904,7.013
				c-1.294,0.193-1.9,0.375-2.757-0.331s-0.759-1.282-0.742-2.341c0.017-1.059,0.513-2.343,0.816-3.386
				c0.194-0.668,0.465-1.229,0.638-1.889c-0.487,0.394-0.915,0.711-1.423,1.109c-0.508,0.398-1.055,0.818-1.586,1.259
				c-1.494,1.242-3.241,2.707-4.787,3.785C360.044,57.944,358.563,58.495,356.851,58.71z"/>
		</g>
		<path d="M390.846,60.002c-0.438,0-0.784-0.131-1.047-0.394c-1.047-0.696-1.418-2.071-1.113-4.121
			c0.305-2.048,0.806-4.295,1.505-6.739c-0.611,0.176-1.439,0.307-2.486,0.392c-1.045,0.089-2.181-0.131-3.4-0.653
			c-0.438-0.174-0.57-0.479-0.394-0.918c0.174-0.346,0.479-0.435,0.916-0.261c1.221,0.524,2.311,0.699,3.273,0.524
			c0.958-0.174,1.7-0.348,2.224-0.524c0.697-0.174,1.132-0.131,1.308,0.131c0.174,0.176,0.217,0.392,0.131,0.653
			c0,0.176-0.023,0.284-0.066,0.328c-0.044,0.044-0.066,0.153-0.066,0.327c-0.261,0.873-0.524,1.832-0.784,2.879
			c-0.261,1.047-0.481,2.05-0.655,3.01c-0.261,1.484-0.305,2.465-0.13,2.944c0.174,0.479,0.346,0.808,0.524,0.981
			c0.261,0.176,0.87,0.044,1.832-0.394c0.958-0.435,2.048-1.001,3.271-1.7c0.697-0.435,1.416-0.871,2.158-1.308
			c0.74-0.437,1.592-0.871,2.552-1.31c0.435-0.174,0.74-0.085,0.916,0.263c0.174,0.437,0.087,0.742-0.261,0.916
			c-0.962,0.437-1.812,0.873-2.552,1.308c-0.742,0.438-1.462,0.831-2.158,1.178c-1.397,0.784-2.509,1.397-3.338,1.832
			C392.175,59.785,391.454,60.002,390.846,60.002z"/>
		<path d="M405.631,57.123c-1.397,0-2.442-0.218-3.139-0.655c-1.397-0.609-2.181-1.745-2.355-3.402
			c-0.174-1.745,0.24-3.029,1.242-3.86c1.003-0.829,2.029-1.329,3.076-1.505c0.871-0.174,1.679-0.131,2.421,0.131
			c0.74,0.261,1.198,0.742,1.374,1.439c0.174,0.524-0.11,1.157-0.85,1.897c-0.744,0.742-2.509,1.462-5.299,2.158
			c-0.263,0.089-0.481,0.046-0.655-0.13c0.174,1.047,0.697,1.746,1.571,2.092c0.348,0.176,0.893,0.328,1.635,0.458
			c0.74,0.131,1.702,0.112,2.879-0.064c1.178-0.174,2.637-0.632,4.384-1.375c1.745-0.74,3.794-1.851,6.149-3.336
			c0.348-0.174,0.611-0.085,0.786,0.263c0.261,0.261,0.217,0.568-0.131,0.916c-3.054,2.007-5.649,3.336-7.786,3.991
			C408.792,56.795,407.026,57.123,405.631,57.123z M405.239,48.88h-0.524c-0.437,0.087-1.068,0.327-1.897,0.719
			c-0.831,0.392-1.288,1.288-1.374,2.683c0.085-0.087,0.217-0.131,0.392-0.131c2.268-0.697,3.684-1.287,4.252-1.766
			c0.566-0.479,0.852-0.763,0.852-0.852C406.941,49.098,406.371,48.88,405.239,48.88z"/>
		<g>
			<path d="M263.988,43.809c-0.554,0.139-0.917-0.015-1.088-0.467c-0.174-0.448-0.191-0.741-0.052-0.88
				c0.415-0.138,1.018-0.224,1.813-0.26c0.793-0.034,1.416,0,1.865,0.104c0.448,0.104,0.552,0.277,0.311,0.519
				C266.594,43.068,265.646,43.394,263.988,43.809z"/>
		</g>
	</g>
	<g>
		<path d="M81.761,14.114c-1.342,0-2.304,0.135-2.885,0.405s-0.941,0.668-1.079,1.194c-0.138,0.526-0.208,1.384-0.208,2.574v22.314
			h-1.91L57.268,18.722v15.505c0,1.176,0.073,2.031,0.218,2.563c0.145,0.533,0.515,0.941,1.11,1.225
			c0.595,0.284,1.557,0.426,2.885,0.426v1.91H51.02v-1.91c1.245,0,2.148-0.142,2.709-0.426c0.56-0.284,0.906-0.692,1.038-1.225
			c0.131-0.533,0.197-1.387,0.197-2.563V19.863c0-1.162-0.031-2.034-0.093-2.615c-0.062-0.581-0.211-1.09-0.446-1.526
			c-0.235-0.436-0.619-0.789-1.152-1.059c-0.533-0.27-1.27-0.453-2.211-0.55v-1.91h8.199l16.024,18.93V18.286
			c0-1.052-0.073-1.858-0.218-2.418c-0.145-0.56-0.505-0.993-1.079-1.297c-0.574-0.304-1.484-0.457-2.73-0.457v-1.91h10.503V14.114z
			"/>
		<path d="M136.29,29.245c-0.803,0.083-1.408,0.211-1.816,0.384s-0.688,0.47-0.841,0.893c-0.152,0.422-0.228,1.076-0.228,1.962
			v6.601c-2.007,0-4.179,0.263-6.518,0.789c-1.688,0.374-2.954,0.633-3.799,0.778c-0.844,0.145-1.84,0.218-2.989,0.218
			c-3.044,0-5.653-0.713-7.825-2.138s-3.802-3.259-4.888-5.501c-1.086-2.242-1.629-4.546-1.629-6.912
			c0-2.712,0.643-5.186,1.93-7.421s3.031-3.992,5.231-5.272c2.2-1.28,4.608-1.92,7.223-1.92c3.183,0,6.082,1.1,8.697,3.3
			c0.318-0.595,0.574-1.411,0.768-2.449h2.013l0.208,9.216h-1.91c-0.291-1.398-0.837-2.678-1.64-3.84
			c-0.803-1.162-1.802-2.083-2.999-2.761c-1.197-0.678-2.515-1.017-3.954-1.017c-1.052,0-2.083,0.183-3.093,0.55
			c-1.01,0.367-1.955,1.003-2.833,1.91c-0.879,0.906-1.584,2.141-2.117,3.705c-0.533,1.564-0.799,3.494-0.799,5.791
			c0,1.965,0.208,3.854,0.623,5.667c0.415,1.813,1.259,3.37,2.532,4.67c1.273,1.301,3.072,1.951,5.397,1.951
			c1.827,0,3.21-0.287,4.151-0.861s1.553-1.277,1.837-2.107s0.426-1.757,0.426-2.781c0-0.969-0.073-1.674-0.218-2.117
			c-0.145-0.443-0.484-0.768-1.017-0.976s-1.353-0.311-2.46-0.311v-1.91h12.537V29.245z"/>
		<path d="M184.03,31.093l-0.228,9.258h-25.074v-1.91c1.73,0,2.844-0.249,3.342-0.747s0.747-1.356,0.747-2.574V17.435
			c0-0.803-0.08-1.429-0.239-1.878c-0.159-0.45-0.533-0.803-1.121-1.059c-0.588-0.256-1.498-0.384-2.73-0.384v-1.91h23.351
			l0.374,7.306h-1.91c-0.429-1.619-0.924-2.778-1.484-3.477c-0.56-0.699-1.19-1.128-1.889-1.287
			c-0.699-0.159-1.747-0.239-3.145-0.239h-5.272v9.943h2.864c0.982,0,1.716-0.086,2.2-0.259c0.484-0.173,0.823-0.502,1.017-0.986
			c0.194-0.484,0.325-1.245,0.394-2.283h1.993v9.361h-1.91c-0.055-1.038-0.194-1.802-0.415-2.294
			c-0.221-0.491-0.571-0.82-1.048-0.986c-0.477-0.166-1.207-0.249-2.19-0.249h-2.906v6.621c0,1.107,0.028,1.917,0.083,2.429
			c0.055,0.512,0.204,0.938,0.446,1.277c0.242,0.339,0.637,0.585,1.183,0.737c0.547,0.152,1.325,0.228,2.335,0.228h2.262
			c0.955,0,1.865-0.121,2.73-0.363s1.712-0.865,2.543-1.868s1.411-2.577,1.744-4.722H184.03z"/>
		<path d="M233.12,30.947l-0.187,9.403h-25.074v-1.91c1.73,0,2.844-0.249,3.342-0.747c0.498-0.498,0.747-1.356,0.747-2.574V17.435
			c0-0.816-0.083-1.45-0.249-1.899c-0.166-0.45-0.55-0.799-1.152-1.048c-0.602-0.249-1.498-0.374-2.688-0.374v-1.91h14.156v1.91
			c-1.176,0-2.065,0.118-2.667,0.353c-0.602,0.235-0.996,0.578-1.183,1.027c-0.187,0.45-0.28,1.097-0.28,1.941v16.19
			c0,1.273,0.062,2.186,0.187,2.74s0.464,0.972,1.017,1.256c0.554,0.284,1.46,0.426,2.719,0.426c1.591,0,2.986-0.121,4.183-0.363
			c1.197-0.242,2.304-0.886,3.321-1.93s1.65-2.647,1.899-4.805H233.12z"/>
		<path d="M270.649,40.35h-14.281v-1.91c1.19,0,2.09-0.114,2.698-0.342c0.609-0.228,1.007-0.571,1.194-1.027
			c0.187-0.457,0.28-1.107,0.28-1.951V17.435c0-1.218-0.253-2.076-0.758-2.574c-0.505-0.498-1.643-0.747-3.414-0.747v-1.91h14.281
			v1.91c-1.19,0-2.09,0.118-2.698,0.353s-1.007,0.578-1.194,1.027c-0.187,0.45-0.28,1.097-0.28,1.941v17.685
			c0,0.803,0.09,1.432,0.27,1.889c0.18,0.457,0.564,0.81,1.152,1.059c0.588,0.249,1.505,0.374,2.75,0.374V40.35z"/>
		<path d="M321.524,40.06h-1.951c-0.291-1.19-0.768-2.256-1.432-3.197c-1.052,1.093-2.256,2.034-3.612,2.823
			c-1.356,0.789-3.19,1.183-5.501,1.183c-2.532,0-4.881-0.616-7.047-1.847c-2.166-1.232-3.892-2.951-5.179-5.158
			c-1.287-2.207-1.93-4.695-1.93-7.462c0-1.965,0.349-3.84,1.048-5.625c0.699-1.785,1.695-3.356,2.989-4.712
			c1.294-1.356,2.837-2.422,4.629-3.197c1.792-0.775,3.754-1.162,5.885-1.162c3.515,0,6.421,1.149,8.718,3.446
			c0.304-0.595,0.602-1.46,0.893-2.595h1.868l0.332,10.358h-1.993c-0.36-1.757-1.01-3.321-1.951-4.691
			c-0.941-1.37-2.058-2.418-3.352-3.145c-1.294-0.726-2.646-1.09-4.058-1.09c-1.578,0-2.996,0.432-4.255,1.297
			c-1.259,0.865-2.245,2.183-2.958,3.954s-1.069,3.978-1.069,6.621c0,2.574,0.298,4.715,0.893,6.424
			c0.595,1.709,1.332,2.999,2.211,3.871c0.879,0.872,1.761,1.463,2.646,1.775c0.886,0.311,1.716,0.467,2.491,0.467
			c1.702,0,3.235-0.457,4.598-1.37s2.48-2.065,3.352-3.456c0.872-1.391,1.453-2.771,1.744-4.141h1.993V40.06z"/>
	</g>
	<path d="M26.34,37.994c-0.512-0.298-0.913-0.72-1.204-1.266c-0.291-0.547-0.747-1.595-1.37-3.145l-5.952-15.218
		c-1.187,0.113-2.395,0.168-3.566,0.168c-1.178,0-2.392-0.056-3.586-0.171L5.106,32.919C4.539,34.4,4.01,35.545,3.518,36.354
		c-0.491,0.81-1.007,1.36-1.546,1.65S0.775,38.441,0,38.441v1.91h9.693v-1.91c-0.858,0-1.609-0.111-2.252-0.332
		c-0.643-0.221-0.965-0.747-0.965-1.578c0-0.457,0.194-1.197,0.581-2.221l0.685-1.827h9.133l1.328,3.321
		c0.166,0.429,0.249,0.851,0.249,1.266c0,0.595-0.256,0.972-0.768,1.131c-0.512,0.159-1.328,0.239-2.449,0.239v1.91h13.264v-1.91
		C27.572,38.441,26.852,38.292,26.34,37.994z M8.552,30.449l3.695-9.818l3.882,9.818H8.552z"/>
	<path d="M16.733,15.638l-1.539-3.974h-1.972l-1.513,3.972c0.712,0.047,1.716,0.105,2.54,0.105
		C15.054,15.741,16.035,15.683,16.733,15.638z"/>
	<path d="M16.74,12.889l0.336,0.867c4.909,0.225,7.56,1,7.56,1.431c0,0.508-3.666,1.496-10.387,1.496
		c-6.72,0-10.386-0.988-10.386-1.496c0-0.429,2.626-1.199,7.491-1.428l0.33-0.867c-4.955,0.2-9.321,0.978-9.321,2.295
		c0,1.541,5.979,2.348,11.886,2.348s11.887-0.807,11.887-2.348C26.136,13.863,21.726,13.083,16.74,12.889z"/>
</g>
<g>
</g>
<g>
</g>
<g>
</g>
<g>
</g>
<g>
</g>
<g>
</g>
</svg>
